<svg xmlns="http://www.w3.org/2000/svg" xmlns:xlink="http://www.w3.org/1999/xlink" width="177.423" height="101.132" viewBox="0 0 177.423 101.132">
  <defs>
    <linearGradient id="linear-gradient" y1="1" x2="1" y2="1" gradientUnits="objectBoundingBox">
      <stop offset="0" stop-color="#072b85"/>
      <stop offset="1" stop-color="#008046"/>
    </linearGradient>
    <clipPath id="clip-path">
      <path id="Path_61" data-name="Path 61" d="M774.814,295.248l7.169.02s-8.1-2.259-6.769-3.2c1.076-.766-6.678-13.623-6.976-14.075,0,0,.1,13.516,6.575,17.253m-22.8-18.2c-1.984,2.048.553,5.065-.525,9.918a13.032,13.032,0,0,1-7.4,8.392h4.6c6.761-5.359,6.668-20.658,6.668-20.658a21.675,21.675,0,0,0-3.339,2.349m-37.608-15.068a2.44,2.44,0,0,0-.422.12c.317-.06.5-.12.435-.12h-.012m107.727,18.807c1.811-.183-2.234,6.916-16.288,7.128-1.719.026,1.136,1.849-.1,2.539-5.735,3.176-7.683,3.421-7.7,1.028-.022-2.993-5.026,2.971-8.386,3.794h38.262s-1.51-17.279-13.512-35.589c0,0,6.622,21.215,7.722,21.1m-126.957,14.18c-.005.061,24.269.391,24.265.391-.452-.332-12.987-5.77-17.386-2.46-.536.4.74-3.244,1.408-3.434s5.412-.928,4.94-1.157a25.425,25.425,0,0,0-4.463-.639,21.112,21.112,0,0,0-3.843,2.014s-1.694-1.607-1.424-2.089a3.57,3.57,0,0,1,3.619-2.484,29.2,29.2,0,0,1,5.125.183s-1.715-1.672-6.224-1.832c-1.773-.063,4.645-6.215,5.847-6.04,1.776.257,2.133,3.964,2.457,4.248.833.721,7.312,1.852,7.961,1.456,0,0,3.4-.635,4.047-2.04.218-.473-.925-.105-2.179.263-1.292.379-2.7.758-2.86.218-.229-.772,3.632-3.956,2.86-3.811-.975.174-7.032-1.254-3.961-3.912,1.339-1.159,1.545-3.8.835-3.417-1.431.766-3.688,2.272-4.878,1.09-.752-.751.927-2.007,1.342-2.524,0,0-3.124,1.365-3.911-1.144-.307-.965.778-3.978,1.436-4.249.639-.255,2.831-1.168,3.794-1.5h0c-.986.186-3.271.372-3.456-1.231-.281-2.439,3.229-1.865,4.191-3.03.234-.284-3.292-.483-3.292-.483-10.417,10.989-15.838,33.584-16.25,37.61m72.006-45.188c.041,1.958,19.654-2.525,19.654-2.525-3.033,6.309-2.864,7.773-.754,13.386.094.254-3.392-.4-7.388-1.059-5.207-.856-11.279-1.711-11.407-.553-.351,3.2.448,12.659.448,12.659s6.8-.468,7.985-1.221c4.547-2.89,11.729-5.562,16.162-2.48,0,0,.016-6.536,12.32-5.934,3.626.174,7.949-5.172,7.949-5.172,1.236,1.644-12.455-19.632-38.963-22.636,0,0-6.29,1.039-6.007,15.534M714.3,253.938a18,18,0,0,0,1.717.613c.575.148,5.551.548,8.011,2.422,1.351,1.026,10.637,19.794,14.137,19.518,2.041-.159-1.58-5.759,5.386-7.7,4.749-1.321,5.907,1.07,7.1,2.266.419.421,4.9,1.058,4.9,1.058.025-.325,1.03-10.371.549-12.682-.386-1.862-7.214-.555-18.848,1.249-.644.1,4.2-4.827-.735-13.383,0,0,19.541,4.648,19.613,2.522.5-14.153-6.172-15.612-6.172-15.612-10.625,1.715-25.92,7.246-35.658,19.729" transform="translate(-695.176 -234.209)" fill="url(#linear-gradient)"/>
    </clipPath>
  </defs>
  <g id="Group_11605" data-name="Group 11605" transform="translate(-660.283 -201.293)">
    <path id="Path_1" data-name="Path 1" d="M660.585,302.276l177.04.068S836.313,201.59,749.1,201.59c-86.944,0-88.516,100.686-88.516,100.686" transform="translate(-0.11 -0.109)" fill="#1a1818"/>
    <path id="Path_2" data-name="Path 2" d="M837.706,302.425h-.192l-177.231-.069,0-.191c0-.253.523-25.5,11.671-50.418,6.551-14.644,15.436-26.312,26.408-34.684,13.719-10.464,30.752-15.77,50.625-15.77,19.935,0,37.006,5.31,50.74,15.782,10.984,8.376,19.867,20.053,26.4,34.707,11.117,24.936,11.57,50.2,11.574,50.451Zm-177.037-.445,176.653.067c-.064-2.381-.965-26.4-11.542-50.121-6.506-14.593-15.351-26.22-26.284-34.556-13.665-10.418-30.657-15.7-50.505-15.7-19.789,0-36.745,5.28-50.4,15.693-10.922,8.331-19.768,19.952-26.293,34.537-10.6,23.7-11.564,47.7-11.633,50.078" transform="translate(0 0)" fill="#1a1818"/>
    <path id="Path_3" data-name="Path 3" d="M665.111,301.4H836.734s-3.612-95.447-86.164-95.447c-81.87,0-85.458,95.447-85.458,95.447" transform="translate(-1.765 -1.703)" fill="#fff"/>
    <path id="Path_4" data-name="Path 4" d="M836.816,301.477H664.8l.007-.2c.009-.239,1.026-24.173,12.045-47.8,6.476-13.883,15.088-24.946,25.6-32.881,13.138-9.922,29.289-14.952,48.006-14.952,18.872,0,35.156,5.03,48.4,14.951,10.6,7.935,19.279,19,25.808,32.88,11.11,23.624,12.134,47.558,12.143,47.8ZM665.2,301.1H836.423c-.121-2.338-1.556-25.044-12.1-47.465-6.5-13.824-15.147-24.837-25.692-32.733-13.179-9.868-29.386-14.872-48.172-14.872-18.632,0-34.707,5-47.777,14.875-10.459,7.9-19.032,18.912-25.481,32.739-10.46,22.422-11.881,45.118-12,47.455" transform="translate(-1.652 -1.594)" fill="#1a1818"/>
    <path id="Path_5" data-name="Path 5" d="M679.206,342.188l.128-2.914a2.652,2.652,0,0,0,1.257-.232,1.518,1.518,0,0,0,.827-1.249,1.339,1.339,0,0,0-.231-1.026,1.084,1.084,0,0,0-1.573-.2,3.634,3.634,0,0,0-.826,1.467,6.274,6.274,0,0,1-1.679,2.685,2.9,2.9,0,0,1-2.248.6,3.188,3.188,0,0,1-1.568-.625,3.046,3.046,0,0,1-1.048-1.451,5.548,5.548,0,0,1-.157-2.458,4.524,4.524,0,0,1,1.126-2.774,3.647,3.647,0,0,1,2.674-.882l-.139,2.888a1.82,1.82,0,0,0-1.162.345,1.412,1.412,0,0,0-.464.967,1.129,1.129,0,0,0,.162.83.817.817,0,0,0,.587.343.652.652,0,0,0,.505-.168,2.377,2.377,0,0,0,.53-.973,11.5,11.5,0,0,1,1.312-2.725,3.194,3.194,0,0,1,1.38-1.1,3.522,3.522,0,0,1,1.693-.2,3.942,3.942,0,0,1,1.918.75,3.445,3.445,0,0,1,1.205,1.611,5.223,5.223,0,0,1,.195,2.41c-.194,1.659-.689,2.768-1.495,3.329a4.624,4.624,0,0,1-2.908.758" transform="translate(-4.294 -48.199)" fill="#1a1818"/>
    <path id="Path_6" data-name="Path 6" d="M679.375,342.275c-.093,0-.189,0-.286-.007l-.188-.008.145-3.286.244,0a2.4,2.4,0,0,0,1.106-.209,1.329,1.329,0,0,0,.728-1.1,1.17,1.17,0,0,0-.192-.888.918.918,0,0,0-.636-.374.893.893,0,0,0-.674.207,3.33,3.33,0,0,0-.764,1.384,6.409,6.409,0,0,1-1.738,2.766,3.089,3.089,0,0,1-2.387.641,3.4,3.4,0,0,1-1.66-.661,3.24,3.24,0,0,1-1.111-1.538,5.739,5.739,0,0,1-.168-2.544,4.732,4.732,0,0,1,1.182-2.888,3.82,3.82,0,0,1,2.769-.936h.2l.029.2-.148,3.065-.177,0a1.641,1.641,0,0,0-1.042.3,1.221,1.221,0,0,0-.4.845.962.962,0,0,0,.126.7.635.635,0,0,0,.456.268.477.477,0,0,0,.364-.126,2.1,2.1,0,0,0,.473-.893,11.558,11.558,0,0,1,1.34-2.774,3.393,3.393,0,0,1,1.461-1.167,3.717,3.717,0,0,1,1.783-.215,4.144,4.144,0,0,1,2.01.787,3.655,3.655,0,0,1,1.27,1.7,5.441,5.441,0,0,1,.2,2.5,4,4,0,0,1-4.313,4.259m-.081-.378a4.408,4.408,0,0,0,2.6-.73,4.352,4.352,0,0,0,1.415-3.195,5.062,5.062,0,0,0-.185-2.324,3.265,3.265,0,0,0-1.14-1.524,3.763,3.763,0,0,0-1.828-.715,3.369,3.369,0,0,0-1.6.191,3.031,3.031,0,0,0-1.3,1.042,11.426,11.426,0,0,0-1.286,2.677,2.462,2.462,0,0,1-.589,1.056.829.829,0,0,1-.643.207,1.007,1.007,0,0,1-.718-.417,1.32,1.32,0,0,1-.2-.966,1.6,1.6,0,0,1,.532-1.089,1.87,1.87,0,0,1,1.1-.381l.121-2.515a3.367,3.367,0,0,0-2.344.825,4.375,4.375,0,0,0-1.072,2.662,5.38,5.38,0,0,0,.147,2.371,2.875,2.875,0,0,0,.983,1.365,3.032,3.032,0,0,0,1.478.589,2.692,2.692,0,0,0,2.109-.56,6.165,6.165,0,0,0,1.62-2.606,3.708,3.708,0,0,1,.886-1.547,1.272,1.272,0,0,1,.952-.284,1.288,1.288,0,0,1,.886.515,1.524,1.524,0,0,1,.271,1.164,1.7,1.7,0,0,1-.927,1.394,2.642,2.642,0,0,1-1.166.252Z" transform="translate(-4.185 -48.09)" fill="#1a1818"/>
    <path id="Path_7" data-name="Path 7" d="M681.67,322.223l-3.737-1.895,4.18-.208Zm4.858-2.331.655-3.119-11.755,1.3-.69,3.263,10.232,5.934.642-3.05-1.708-.862.711-3.364Z" transform="translate(-5.285 -42.218)" fill="#1a1818"/>
    <path id="Path_8" data-name="Path 8" d="M684.979,327.435,674.4,321.3l.746-3.531,12.15-1.341-.739,3.517-1.913.1-.65,3.08,1.707.863Zm-10.15-6.322,9.888,5.734.559-2.652-1.707-.863.769-3.648,1.913-.1.571-2.722-11.36,1.253Zm6.852,1.265-4.589-2.327,5.134-.255Zm-3.151-2.021,2.883,1.462.341-1.622Z" transform="translate(-5.162 -42.093)" fill="#1a1818"/>
    <rect id="Rectangle_1" data-name="Rectangle 1" width="3.061" height="11.237" transform="translate(671.49 270.44) rotate(-73.979)" fill="#1a1818"/>
    <path id="Path_9" data-name="Path 9" d="M688.741,311.792l-11.16-3.208.95-3.305,11.164,3.21Zm-10.694-3.466,10.436,3,.744-2.578-10.438-3Z" transform="translate(-6.324 -38.016)" fill="#1a1818"/>
    <path id="Path_10" data-name="Path 10" d="M680.611,295.911l1-2.657,7.151-1.268-5.831-2.211,1.01-2.666,10.508,3.979-1.011,2.672-7.12,1.262,5.805,2.2-1.01,2.666Z" transform="translate(-7.432 -31.373)" fill="#1a1818"/>
    <path id="Path_11" data-name="Path 11" d="M691.086,299.992l-10.859-4.111,1.109-2.934,6.583-1.168-5.368-2.036,1.142-3.018,10.862,4.113-1.115,2.949-6.552,1.161,5.34,2.025Zm-10.373-4.33,10.153,3.844.877-2.312-6.269-2.377,7.688-1.362.906-2.4-10.156-3.846-.876,2.313,6.294,2.387-7.719,1.369Z" transform="translate(-7.291 -31.233)" fill="#1a1818"/>
    <path id="Path_12" data-name="Path 12" d="M687.461,278.776l4.278-8.209,2.461,1.28-1.435,2.762,7.5,3.912-1.4,2.69-7.5-3.91-1.441,2.757Z" transform="translate(-9.936 -25.326)" fill="#1a1818"/>
    <path id="Path_13" data-name="Path 13" d="M698.8,281.318l-7.5-3.91-1.44,2.757-2.795-1.455,4.452-8.543,2.795,1.453-1.433,2.761,7.5,3.912Zm-7.662-4.419,7.5,3.91,1.225-2.354-7.5-3.912,1.434-2.762-2.126-1.106-4.105,7.874,2.127,1.108Z" transform="translate(-9.789 -25.18)" fill="#1a1818"/>
    <path id="Path_14" data-name="Path 14" d="M701.094,256.37l5.091-6.364,1.87,1.494-3.181,3.975,1.4,1.124,2.957-3.693,1.784,1.43-2.955,3.7,1.727,1.382,3.278-4.1,1.989,1.592-5.189,6.483Z" transform="translate(-14.92 -17.809)" fill="#1a1818"/>
    <path id="Path_15" data-name="Path 15" d="M709.745,263.5l-9.069-7.256L706,249.589l2.165,1.728-3.18,3.976,1.109.889,2.956-3.694,2.078,1.666-2.954,3.7L709.61,259l3.276-4.1,2.283,1.828Zm-8.538-7.315,8.479,6.785,4.954-6.189-1.693-1.356-3.277,4.1-2.023-1.618,2.955-3.7-1.489-1.195-2.958,3.694-1.7-1.36,3.18-3.975-1.575-1.257Z" transform="translate(-14.767 -17.657)" fill="#1a1818"/>
    <path id="Path_16" data-name="Path 16" d="M712.591,245.155l2.222-2.065,5.759,6.2,3.485-3.237,1.889,2.032-5.707,5.3Z" transform="translate(-19.123 -15.281)" fill="#1a1818"/>
    <path id="Path_17" data-name="Path 17" d="M720.077,253.5l-7.907-8.506,2.5-2.323,5.759,6.2,3.486-3.238,2.146,2.309Zm-7.373-8.487,7.392,7.954,5.43-5.046-1.632-1.756-3.485,3.237-5.759-6.2Z" transform="translate(-18.969 -15.127)" fill="#1a1818"/>
    <rect id="Rectangle_2" data-name="Rectangle 2" width="3.061" height="11.235" transform="translate(701.355 222.98) rotate(-36.062)" fill="#1a1818"/>
    <path id="Path_18" data-name="Path 18" d="M731.442,243.632l-6.831-9.389,2.778-2.023,6.836,9.392Zm-6.3-9.306,6.386,8.779,2.173-1.577-6.392-8.781Z" transform="translate(-23.518 -11.307)" fill="#1a1818"/>
    <path id="Path_19" data-name="Path 19" d="M733.063,227.325l7.537-4.117,1.071,1.963-1.679,8.422,5.017-2.744,1.158,2.119-8.192,4.478-1.118-2.048,1.668-8.33-4.316,2.357Z" transform="translate(-26.607 -8.012)" fill="#1a1818"/>
    <path id="Path_20" data-name="Path 20" d="M737.75,237.554l-1.24-2.274,1.6-8-4.127,2.255-1.327-2.431,7.869-4.3,1.193,2.189-1.613,8.093,4.828-2.641,1.339,2.451Zm-.844-2.334.995,1.822,7.861-4.3-.978-1.788-5.205,2.847,1.745-8.751-.947-1.737-7.207,3.937.965,1.769,4.505-2.461Z" transform="translate(-26.46 -7.864)" fill="#1a1818"/>
    <path id="Path_21" data-name="Path 21" d="M756.9,225.018l-.3-4.178,2.332,3.473Zm4.5,2.96,3.007-1.039-7.161-9.413-3.151,1.089.18,11.825,2.941-1.015-.137-1.91,3.251-1.127Z" transform="translate(-34.299 -5.935)" fill="#1a1818"/>
    <path id="Path_22" data-name="Path 22" d="M753.985,230.575l-.186-12.223,3.41-1.178,7.4,9.729-3.391,1.172-1.07-1.59-2.978,1.032.139,1.91Zm.2-11.955.174,11.429,2.559-.883-.14-1.91,3.527-1.222,1.07,1.59,2.623-.907-6.92-9.1Zm2.443,6.529-.367-5.132,2.864,4.265Zm.11-3.744.231,3.225,1.57-.544Z" transform="translate(-34.189 -5.806)" fill="#1a1818"/>
    <path id="Path_23" data-name="Path 23" d="M771.8,215.582l1.323-.238a1.377,1.377,0,0,1,1.006.1,1.035,1.035,0,0,1,.411.707,1.112,1.112,0,0,1-.133.845,1.379,1.379,0,0,1-.931.45l-1.3.232Zm-1.442,9.37,5.174-.917a12.8,12.8,0,0,0,1.318-.393,2.533,2.533,0,0,0,1.834-1.823,3.421,3.421,0,0,0,.074-1.611,3.017,3.017,0,0,0-.808-1.672,2.715,2.715,0,0,0-1.712-.714,2.356,2.356,0,0,0,.911-.923,2.728,2.728,0,0,0,.237-1.773,2.778,2.778,0,0,0-1.1-1.825,2.88,2.88,0,0,0-2.294-.408l-5.6,1Zm2.189-5.17,1.514-.268a1.61,1.61,0,0,1,1.16.1,1.056,1.056,0,0,1,.454.736,1.153,1.153,0,0,1-.166.9,1.549,1.549,0,0,1-1.038.509l-1.528.271Z" transform="translate(-39.521 -4.216)" fill="#1a1818"/>
    <path id="Path_24" data-name="Path 24" d="M770.076,225.063l-2.035-11.435,5.79-1.029a3.079,3.079,0,0,1,2.439.442,2.98,2.98,0,0,1,1.171,1.945,2.921,2.921,0,0,1-.254,1.892,2.293,2.293,0,0,1-.591.72,2.692,2.692,0,0,1,1.356.7,3.209,3.209,0,0,1,.862,1.774,3.623,3.623,0,0,1-.079,1.7,3.056,3.056,0,0,1-.819,1.342,3.014,3.014,0,0,1-1.136.606,12.4,12.4,0,0,1-1.344.4Zm-1.6-11.13,1.9,10.693,4.987-.884a12.763,12.763,0,0,0,1.291-.386,2.346,2.346,0,0,0,1.714-1.7,3.26,3.26,0,0,0,.068-1.523,2.84,2.84,0,0,0-.755-1.571,2.545,2.545,0,0,0-1.6-.66l-.567-.052.485-.3a2.178,2.178,0,0,0,.841-.848,2.778,2.778,0,0,0-.8-3.362,2.683,2.683,0,0,0-2.149-.374Zm4.182,8.216-.461-2.626,1.7-.3a1.772,1.772,0,0,1,1.3.134,1.241,1.241,0,0,1,.535.86,1.348,1.348,0,0,1-.2,1.044,1.71,1.71,0,0,1-1.162.587Zm-.025-2.321.331,1.884,1.342-.238a1.4,1.4,0,0,0,.917-.431.973.973,0,0,0,.134-.761.868.868,0,0,0-.373-.612,1.463,1.463,0,0,0-1.023-.077Zm-.744-2.034-.441-2.471,1.508-.272a1.515,1.515,0,0,1,1.148.136,1.217,1.217,0,0,1,.489.829,1.3,1.3,0,0,1-.164.986,1.54,1.54,0,0,1-1.053.527Zm0-2.167.31,1.729,1.116-.2a1.227,1.227,0,0,0,.809-.372.929.929,0,0,0,.1-.7.856.856,0,0,0-.332-.584,1.231,1.231,0,0,0-.868-.074Z" transform="translate(-39.395 -4.107)" fill="#1a1818"/>
    <path id="Path_25" data-name="Path 25" d="M786.731,211.39l8.141-.371.112,2.389-5.086.233.082,1.8,4.724-.218.107,2.288-4.728.214.1,2.209,5.236-.238.115,2.543-8.293.377Z" transform="translate(-46.228 -3.556)" fill="#1a1818"/>
    <path id="Path_26" data-name="Path 26" d="M786.95,222.7l-.53-11.6,8.517-.388.129,2.765-5.087.233.065,1.422,4.724-.218.124,2.665-4.729.214.086,1.832,5.236-.238.133,2.92Zm-.136-11.242.5,10.848,7.916-.36-.1-2.167-5.234.238-.122-2.586,4.728-.214-.089-1.911-4.725.219-.1-2.176,5.086-.233-.094-2.012Z" transform="translate(-46.114 -3.442)" fill="#1a1818"/>
    <path id="Path_27" data-name="Path 27" d="M803.3,211.008l9.237.618-.186,2.772-3.1-.207-.56,8.438-3.029-.2.563-8.442-3.1-.2Z" transform="translate(-52.22 -3.552)" fill="#1a1818"/>
    <path id="Path_28" data-name="Path 28" d="M808.748,222.714l-3.406-.223.563-8.442-3.1-.206.206-3.151,9.613.643-.211,3.149-3.1-.207Zm-3.005-.575,2.653.174.56-8.438,3.1.207.161-2.4-8.859-.593-.157,2.4,3.1.206Z" transform="translate(-52.104 -3.436)" fill="#1a1818"/>
    <path id="Path_29" data-name="Path 29" d="M820.7,212.533l2.975.62-.8,3.853,3.246.674.8-3.851,3,.624-2.29,11-3-.625.928-4.456-3.247-.676-.929,4.453-2.972-.617Z" transform="translate(-57.81 -4.109)" fill="#1a1818"/>
    <path id="Path_30" data-name="Path 30" d="M827.645,225.549l-3.365-.7.929-4.455-2.878-.6-.929,4.454-3.341-.695,2.369-11.37,3.343.7-.805,3.853,2.878.6.8-3.851,3.365.7Zm-2.919-.994,2.627.547,2.214-10.631-2.627-.547-.8,3.85-3.615-.751.8-3.853-2.606-.543-2.215,10.631,2.6.541.929-4.454,3.616.754Z" transform="translate(-57.682 -3.981)" fill="#1a1818"/>
    <path id="Path_31" data-name="Path 31" d="M846.461,229.416l2.73-3.176-.794,4.111Zm1.1,5.271,2.87,1.382,1.553-11.723-3-1.447-8.209,8.516,2.807,1.349,1.246-1.449,3.1,1.491Z" transform="translate(-65.986 -7.899)" fill="#1a1818"/>
    <path id="Path_32" data-name="Path 32" d="M850.4,236.219l-3.235-1.558.363-1.882-2.838-1.365-1.245,1.45-3.173-1.525,8.485-8.8,3.248,1.566Zm-2.81-1.772,2.5,1.205,1.5-11.329-2.757-1.328-7.932,8.23,2.44,1.174,1.245-1.45,3.362,1.616Zm.759-3.952-2.378-1.148,3.353-3.9Zm-1.772-1.275,1.494.721.614-3.173Z" transform="translate(-65.804 -7.766)" fill="#1a1818"/>
    <path id="Path_33" data-name="Path 33" d="M863.548,230.038l2.286,1.681-.7,7.226,3.691-5.021,2.3,1.69-6.652,9.051-2.3-1.689.695-7.194-3.679,5-2.3-1.691Z" transform="translate(-71.877 -10.509)" fill="#1a1818"/>
    <path id="Path_34" data-name="Path 34" d="M864.364,244.777l-2.543-1.865.64-6.619-3.386,4.6-2.6-1.916,6.882-9.357,2.524,1.855-.641,6.652,3.4-4.622,2.6,1.913Zm-2.146-2.042,2.066,1.514,6.428-8.747-2-1.467-3.985,5.421.752-7.8-2.047-1.506L857,238.9,859,240.368l3.973-5.4Z" transform="translate(-71.725 -10.357)" fill="#1a1818"/>
    <path id="Path_35" data-name="Path 35" d="M879.066,242.825l1.942,2.072-2.018,6.974,4.555-4.257,1.947,2.085-8.206,7.671-1.948-2.085,2.009-6.947-4.537,4.242-1.952-2.085Z" transform="translate(-76.984 -15.184)" fill="#1a1818"/>
    <path id="Path_36" data-name="Path 36" d="M877.123,257.485l-2.151-2.3,1.849-6.392-4.174,3.9-2.21-2.361,8.484-7.928,2.144,2.287-1.857,6.42L883.4,247.2l2.2,2.361Zm-1.728-2.4,1.747,1.868,7.93-7.414-1.69-1.809-4.917,4.6,2.178-7.53-1.739-1.856-7.933,7.414,1.693,1.81,4.9-4.581Z" transform="translate(-76.83 -15.031)" fill="#1a1818"/>
    <path id="Path_37" data-name="Path 37" d="M890.355,268.892l1.659,2.4a2.682,2.682,0,0,0-.86.95,1.507,1.507,0,0,0,.092,1.493,1.329,1.329,0,0,0,.806.679,1.073,1.073,0,0,0,.869-.1,1.092,1.092,0,0,0,.5-.688,3.626,3.626,0,0,0-.229-1.67,6.281,6.281,0,0,1-.284-3.15,2.924,2.924,0,0,1,1.428-1.836,3.25,3.25,0,0,1,1.632-.452,3.063,3.063,0,0,1,1.712.528,5.5,5.5,0,0,1,1.606,1.859,4.511,4.511,0,0,1,.778,2.893,3.651,3.651,0,0,1-1.6,2.316l-1.633-2.382a1.838,1.838,0,0,0,.719-.978,1.418,1.418,0,0,0-.215-1.052,1.141,1.141,0,0,0-.626-.563.832.832,0,0,0-.679.083.653.653,0,0,0-.3.442,2.357,2.357,0,0,0,.171,1.093,11.815,11.815,0,0,1,.6,2.963,3.168,3.168,0,0,1-.436,1.712,3.486,3.486,0,0,1-1.229,1.188,3.932,3.932,0,0,1-1.98.556,3.375,3.375,0,0,1-1.935-.554,5.26,5.26,0,0,1-1.607-1.8q-1.278-2.158-.818-3.557a4.664,4.664,0,0,1,1.858-2.362" transform="translate(-83.389 -23.843)" fill="#1a1818"/>
    <path id="Path_38" data-name="Path 38" d="M892.681,277.249a3.582,3.582,0,0,1-1.97-.585,5.488,5.488,0,0,1-1.666-1.866,4.659,4.659,0,0,1-.835-3.711,4.874,4.874,0,0,1,1.929-2.458l.154-.109,1.871,2.7-.145.109a2.508,2.508,0,0,0-.8.877,1.318,1.318,0,0,0,.084,1.318,1.154,1.154,0,0,0,.69.592.878.878,0,0,0,.728-.085.9.9,0,0,0,.415-.574,3.34,3.34,0,0,0-.228-1.568,6.483,6.483,0,0,1-.286-3.248,3.115,3.115,0,0,1,1.515-1.953,3.449,3.449,0,0,1,1.726-.478h0a3.286,3.286,0,0,1,1.816.558,5.705,5.705,0,0,1,1.667,1.922,4.711,4.711,0,0,1,.8,3.017,3.847,3.847,0,0,1-1.672,2.44l-.157.117-1.844-2.689.138-.11a1.653,1.653,0,0,0,.653-.872,1.23,1.23,0,0,0-.194-.915.966.966,0,0,0-.516-.478.643.643,0,0,0-.529.065.462.462,0,0,0-.213.321,2.089,2.089,0,0,0,.166.994,11.816,11.816,0,0,1,.606,3.018,3.361,3.361,0,0,1-.464,1.812,3.685,3.685,0,0,1-1.294,1.25,4.134,4.134,0,0,1-2.074.583Zm-2.479-8.2a4.428,4.428,0,0,0-1.633,2.156,4.321,4.321,0,0,0,.8,3.4,5.111,5.111,0,0,0,1.547,1.741,3.2,3.2,0,0,0,1.764.525h.065a3.772,3.772,0,0,0,1.887-.531,3.315,3.315,0,0,0,1.164-1.123,2.978,2.978,0,0,0,.408-1.612,11.728,11.728,0,0,0-.588-2.91,2.474,2.474,0,0,1-.174-1.195.838.838,0,0,1,.388-.556,1.024,1.024,0,0,1,.828-.1,1.326,1.326,0,0,1,.736.648,1.614,1.614,0,0,1,.237,1.191,1.875,1.875,0,0,1-.651.971l1.423,2.075a3.375,3.375,0,0,0,1.369-2.074,4.358,4.358,0,0,0-.754-2.768,5.341,5.341,0,0,0-1.547-1.8,2.9,2.9,0,0,0-1.579-.5,3.1,3.1,0,0,0-1.566.426,2.72,2.72,0,0,0-1.342,1.72,6.145,6.145,0,0,0,.282,3.05,3.69,3.69,0,0,1,.23,1.773,1.285,1.285,0,0,1-.588.8,1.268,1.268,0,0,1-1.016.124,1.513,1.513,0,0,1-.917-.766,1.694,1.694,0,0,1-.1-1.668,2.667,2.667,0,0,1,.775-.908Z" transform="translate(-83.281 -23.734)" fill="#1a1818"/>
    <path id="Path_39" data-name="Path 39" d="M904.811,280.21l3.286,7.462-2.191.965-2.052-4.665-1.642.729,1.9,4.328-2.1.924-1.906-4.331-2.026.891,2.118,4.8-2.331,1.028-3.346-7.6Z" transform="translate(-85.637 -28.851)" fill="#1a1818"/>
    <path id="Path_40" data-name="Path 40" d="M897.632,292.447l-3.5-7.948,10.628-4.682,3.438,7.808-2.536,1.117-2.052-4.664-1.3.576,1.9,4.33-2.44,1.075-1.907-4.332-1.68.738,2.118,4.8Zm-3-7.754,3.194,7.256,1.986-.875-2.118-4.8,2.371-1.042,1.907,4.33,1.75-.771-1.9-4.329,1.988-.882,2.052,4.666,1.845-.814-3.135-7.116Z" transform="translate(-85.494 -28.708)" fill="#1a1818"/>
    <path id="Path_41" data-name="Path 41" d="M911.486,295.031l2.84,8.811-2.639.851-.953-2.958-8.054,2.594-.931-2.887,8.052-2.6-.955-2.958Z" transform="translate(-88.277 -34.27)" fill="#1a1818"/>
    <path id="Path_42" data-name="Path 42" d="M911.429,304.794l-.953-2.959-8.055,2.594-1.046-3.245,8.051-2.6-.955-2.958,3-.972,2.956,9.17Zm-.711-3.433.953,2.958,2.281-.736-2.724-8.452-2.283.74.955,2.958-8.051,2.6.815,2.527Z" transform="translate(-88.141 -34.133)" fill="#1a1818"/>
    <path id="Path_43" data-name="Path 43" d="M914.02,316a1.774,1.774,0,0,1,1.045,1.29,1.818,1.818,0,0,1-.381,1.648,3.781,3.781,0,0,1-2.136,1.05,4.566,4.566,0,0,1-2.664.037,1.939,1.939,0,0,1-.641-2.973A5.621,5.621,0,0,1,914.02,316m-6.21-1.615a4.45,4.45,0,0,0-1.483,2.142,5.641,5.641,0,0,0,.006,2.827,5,5,0,0,0,1.274,2.522,4.529,4.529,0,0,0,2.276,1.216,7.74,7.74,0,0,0,3.272-.126,6.171,6.171,0,0,0,3.825-2.209,4.8,4.8,0,0,0,.649-4.024,4.746,4.746,0,0,0-2.3-3.327,6.277,6.277,0,0,0-4.469-.386,7.022,7.022,0,0,0-3.048,1.367" transform="translate(-89.887 -40.763)" fill="#1a1818"/>
    <path id="Path_44" data-name="Path 44" d="M910.987,323.29a5.894,5.894,0,0,1-1.252-.126,4.737,4.737,0,0,1-2.37-1.266,5.193,5.193,0,0,1-1.325-2.614,5.848,5.848,0,0,1,0-2.921,4.652,4.652,0,0,1,1.543-2.232,7.249,7.249,0,0,1,3.13-1.406,6.487,6.487,0,0,1,4.6.405,5.624,5.624,0,0,1,1.715,7.627,6.368,6.368,0,0,1-3.937,2.283,9.89,9.89,0,0,1-2.1.253m1.658-10.419a8.6,8.6,0,0,0-1.853.22,6.878,6.878,0,0,0-2.968,1.327,4.277,4.277,0,0,0-1.424,2.05,5.479,5.479,0,0,0,.009,2.732,4.825,4.825,0,0,0,1.224,2.429,4.352,4.352,0,0,0,2.183,1.165,7.614,7.614,0,0,0,3.192-.126,6.012,6.012,0,0,0,3.713-2.136,4.637,4.637,0,0,0,.618-3.872,4.531,4.531,0,0,0-2.209-3.2,5.116,5.116,0,0,0-2.484-.587M910.8,320.28a2.713,2.713,0,0,1-1.1-.193,2,2,0,0,1-1.149-1.467,1.983,1.983,0,0,1,.442-1.8,5.771,5.771,0,0,1,5-1.1,1.962,1.962,0,0,1,1.15,1.421,2.006,2.006,0,0,1-.42,1.809,3.936,3.936,0,0,1-2.241,1.114,7.958,7.958,0,0,1-1.685.218m2.035-4.4a6.641,6.641,0,0,0-1.4.175,4,4,0,0,0-2.158,1.01,1.6,1.6,0,0,0-.359,1.474,1.621,1.621,0,0,0,.936,1.2,4.474,4.474,0,0,0,2.544-.049,3.649,3.649,0,0,0,2.033-.987,1.631,1.631,0,0,0,.342-1.486,1.587,1.587,0,0,0-.941-1.16,2.41,2.41,0,0,0-1-.181" transform="translate(-89.779 -40.655)" fill="#1a1818"/>
    <path id="Path_45" data-name="Path 45" d="M919.967,331.145l.325,2.816-5.761,4.417,6.194-.725.332,2.84-11.165,1.3-.328-2.832,5.739-4.4-6.168.721-.331-2.838Z" transform="translate(-90.857 -47.473)" fill="#1a1818"/>
    <path id="Path_46" data-name="Path 46" d="M909.607,341.878l-.363-3.126,5.281-4.047-5.676.662-.374-3.213,11.537-1.34.359,3.111-5.3,4.065,5.7-.668.376,3.215Zm.036-2.956.294,2.538,10.79-1.253-.288-2.465-6.687.783,6.22-4.768-.292-2.523-10.787,1.254.287,2.463,6.66-.778Z" transform="translate(-90.737 -47.352)" fill="#1a1818"/>
    <path id="Path_47" data-name="Path 47" d="M752,342.1l2.882-.2a2.577,2.577,0,0,0,.39,1.188,1.526,1.526,0,0,0,1.339.666,1.378,1.378,0,0,0,1-.345,1.048,1.048,0,0,0,.351-.786,1.062,1.062,0,0,0-.336-.766,3.616,3.616,0,0,0-1.555-.636,6.31,6.31,0,0,1-2.852-1.329,2.814,2.814,0,0,1-.864-2.115,3.067,3.067,0,0,1,.448-1.594A2.992,2.992,0,0,1,754.133,335a5.662,5.662,0,0,1,2.427-.428,4.574,4.574,0,0,1,2.881.779,3.468,3.468,0,0,1,1.176,2.476l-2.852.19a1.775,1.775,0,0,0-.488-1.078,1.469,1.469,0,0,0-1.028-.336,1.165,1.165,0,0,0-.808.251.8.8,0,0,0-.275.609.629.629,0,0,0,.233.471,2.334,2.334,0,0,0,1.025.406,11.728,11.728,0,0,1,2.855.972,3.165,3.165,0,0,1,1.255,1.211,3.415,3.415,0,0,1,.394,1.629,3.769,3.769,0,0,1-.523,1.948,3.4,3.4,0,0,1-1.464,1.351,5.36,5.36,0,0,1-2.363.462q-2.513,0-3.479-1.076A4.485,4.485,0,0,1,752,342.1" transform="translate(-33.532 -48.726)" fill="#1a1818"/>
    <path id="Path_48" data-name="Path 48" d="M756.46,345.993c-1.724,0-2.942-.383-3.619-1.139a4.685,4.685,0,0,1-1.143-2.847l-.015-.189,3.25-.227.022.177a2.4,2.4,0,0,0,.356,1.1,1.339,1.339,0,0,0,1.187.589,1.2,1.2,0,0,0,.871-.291.861.861,0,0,0,.3-.652.873.873,0,0,0-.282-.633,3.311,3.311,0,0,0-1.465-.585,6.525,6.525,0,0,1-2.939-1.377,3,3,0,0,1-.921-2.25,3.257,3.257,0,0,1,.474-1.691,3.18,3.18,0,0,1,1.4-1.256,5.863,5.863,0,0,1,2.509-.447,4.767,4.767,0,0,1,3,.82,3.654,3.654,0,0,1,1.246,2.6l.022.2-3.22.214-.027-.171a1.6,1.6,0,0,0-.427-.968,1.291,1.291,0,0,0-.9-.287.994.994,0,0,0-.681.2.608.608,0,0,0-.213.469.445.445,0,0,0,.173.331,2.04,2.04,0,0,0,.939.362,11.858,11.858,0,0,1,2.907.992,3.369,3.369,0,0,1,1.327,1.284,3.608,3.608,0,0,1,.418,1.721,3.974,3.974,0,0,1-.55,2.042,3.584,3.584,0,0,1-1.544,1.426,5.575,5.575,0,0,1-2.446.481m-4.369-3.826a4.193,4.193,0,0,0,1.03,2.435,4.4,4.4,0,0,0,3.338,1.014,5.188,5.188,0,0,0,2.28-.444,3.212,3.212,0,0,0,1.384-1.276,3.6,3.6,0,0,0,.5-1.852,3.224,3.224,0,0,0-.372-1.54,3,3,0,0,0-1.181-1.136,11.646,11.646,0,0,0-2.807-.952,2.413,2.413,0,0,1-1.114-.456.812.812,0,0,1-.287-.6.987.987,0,0,1,.336-.748,1.347,1.347,0,0,1,.935-.3,1.65,1.65,0,0,1,1.157.387,1.814,1.814,0,0,1,.514,1.018l2.484-.166a3.188,3.188,0,0,0-1.08-2.152,4.41,4.41,0,0,0-2.765-.739,5.517,5.517,0,0,0-2.344.409,2.813,2.813,0,0,0-1.242,1.108,2.884,2.884,0,0,0-.423,1.5,2.639,2.639,0,0,0,.806,1.979,6.163,6.163,0,0,0,2.767,1.282,3.707,3.707,0,0,1,1.643.686,1.249,1.249,0,0,1,.39.9,1.231,1.231,0,0,1-.411.923,1.558,1.558,0,0,1-1.133.4,1.71,1.71,0,0,1-1.494-.747,2.532,2.532,0,0,1-.4-1.095Z" transform="translate(-33.415 -48.617)" fill="#1a1818"/>
    <path id="Path_49" data-name="Path 49" d="M775.083,341.231l2.672.9a5.8,5.8,0,0,1-.848,2.092,3.742,3.742,0,0,1-1.428,1.259,4.862,4.862,0,0,1-2.185.432,5.69,5.69,0,0,1-2.609-.521,4.356,4.356,0,0,1-1.755-1.827,6.74,6.74,0,0,1-.744-3.347,6.1,6.1,0,0,1,1.3-4.182,4.643,4.643,0,0,1,3.676-1.463,4.555,4.555,0,0,1,2.915.843A4.969,4.969,0,0,1,777.652,338l-2.674.664a2.756,2.756,0,0,0-.29-.735,1.876,1.876,0,0,0-.631-.6,1.678,1.678,0,0,0-.828-.2,1.74,1.74,0,0,0-1.585.923,4.235,4.235,0,0,0-.421,2.153,4.449,4.449,0,0,0,.5,2.5,1.636,1.636,0,0,0,1.394.677,1.6,1.6,0,0,0,1.318-.548,3.639,3.639,0,0,0,.651-1.592" transform="translate(-39.449 -48.726)" fill="#1a1818"/>
    <path id="Path_50" data-name="Path 50" d="M773.186,345.993a5.892,5.892,0,0,1-2.7-.542,4.541,4.541,0,0,1-1.833-1.9,6.942,6.942,0,0,1-.767-3.439,6.3,6.3,0,0,1,1.347-4.308,4.84,4.84,0,0,1,3.815-1.526,4.712,4.712,0,0,1,3.033.884,5.17,5.17,0,0,1,1.638,2.677l.056.188-3.043.756-.05-.177a2.635,2.635,0,0,0-.266-.684,1.715,1.715,0,0,0-.565-.539,1.487,1.487,0,0,0-.735-.18,1.55,1.55,0,0,0-1.422.83,4.083,4.083,0,0,0-.4,2.057,4.342,4.342,0,0,0,.459,2.385,1.447,1.447,0,0,0,1.242.6,1.414,1.414,0,0,0,1.173-.478,3.476,3.476,0,0,0,.611-1.509l.042-.211,3.036,1.021-.036.165a5.947,5.947,0,0,1-.876,2.159,3.928,3.928,0,0,1-1.5,1.322,5.07,5.07,0,0,1-2.268.451m-.133-11.341a4.481,4.481,0,0,0-3.533,1.4,5.939,5.939,0,0,0-1.252,4.058,6.579,6.579,0,0,0,.719,3.254,4.18,4.18,0,0,0,1.676,1.752,5.53,5.53,0,0,0,2.524.5,4.713,4.713,0,0,0,2.1-.412,3.568,3.568,0,0,0,1.357-1.2,5.453,5.453,0,0,0,.782-1.86l-2.311-.778a3.573,3.573,0,0,1-.643,1.464,1.791,1.791,0,0,1-1.467.619,1.825,1.825,0,0,1-1.546-.754,4.576,4.576,0,0,1-.533-2.609,4.365,4.365,0,0,1,.449-2.252,1.923,1.923,0,0,1,1.746-1.013,1.86,1.86,0,0,1,.919.228,2.067,2.067,0,0,1,.7.661,2.53,2.53,0,0,1,.264.614l2.306-.572a4.674,4.674,0,0,0-1.453-2.3,4.355,4.355,0,0,0-2.8-.8" transform="translate(-39.34 -48.617)" fill="#1a1818"/>
    <path id="Path_51" data-name="Path 51" d="M785.945,334.855h3.035v3.836h3.292v-3.836h3.06v10.981h-3.06v-4.445H788.98v4.445h-3.035Z" transform="translate(-45.941 -48.829)" fill="#1a1818"/>
    <path id="Path_52" data-name="Path 52" d="M795.413,345.915h-3.438v-4.445H789.06v4.445h-3.412V334.557h3.412v3.836h2.914v-3.836h3.438Zm-3.061-.378h2.684v-10.6h-2.684v3.836h-3.669v-3.836h-2.658v10.6h2.658v-4.445h3.669Z" transform="translate(-45.832 -48.72)" fill="#1a1818"/>
    <path id="Path_53" data-name="Path 53" d="M807.235,337.864a1.775,1.775,0,0,1,1.471-.719,1.831,1.831,0,0,1,1.524.714,3.645,3.645,0,0,1,.558,2.255,4.408,4.408,0,0,1-.534,2.543,1.792,1.792,0,0,1-1.519.714,1.811,1.811,0,0,1-1.505-.727,5.412,5.412,0,0,1,.006-4.779m-2.917,5.589a4.382,4.382,0,0,0,1.766,1.869,5.737,5.737,0,0,0,2.751.591,5.068,5.068,0,0,0,2.735-.686,4.433,4.433,0,0,0,1.671-1.911,7.43,7.43,0,0,0,.584-3.153,5.908,5.908,0,0,0-1.331-4.119,4.83,4.83,0,0,0-3.782-1.472,4.733,4.733,0,0,0-3.731,1.5,6.037,6.037,0,0,0-1.339,4.179,6.8,6.8,0,0,0,.676,3.2" transform="translate(-52.411 -48.726)" fill="#1a1818"/>
    <path id="Path_54" data-name="Path 54" d="M808.726,345.994a5.947,5.947,0,0,1-2.84-.614,4.585,4.585,0,0,1-1.844-1.946,7.022,7.022,0,0,1-.7-3.291,6.246,6.246,0,0,1,1.387-4.3,4.934,4.934,0,0,1,3.872-1.562,5.023,5.023,0,0,1,3.922,1.534,6.106,6.106,0,0,1,1.381,4.245,7.65,7.65,0,0,1-.6,3.233,4.653,4.653,0,0,1-1.742,1.992,5.285,5.285,0,0,1-2.836.714m-.123-11.341a4.572,4.572,0,0,0-3.59,1.436,5.883,5.883,0,0,0-1.292,4.053,6.647,6.647,0,0,0,.655,3.114,4.217,4.217,0,0,0,1.69,1.792,5.58,5.58,0,0,0,2.66.568,4.916,4.916,0,0,0,2.635-.657,4.269,4.269,0,0,0,1.6-1.832,7.3,7.3,0,0,0,.564-3.073,5.755,5.755,0,0,0-1.281-3.992,4.668,4.668,0,0,0-3.643-1.41m.023,8.8a1.993,1.993,0,0,1-1.655-.8,5.566,5.566,0,0,1,.005-5.009,1.963,1.963,0,0,1,1.621-.794,2.022,2.022,0,0,1,1.673.786,3.792,3.792,0,0,1,.6,2.371,4.523,4.523,0,0,1-.572,2.658,1.979,1.979,0,0,1-1.67.789m-.029-6.226a1.58,1.58,0,0,0-1.322.647,5.265,5.265,0,0,0-.005,4.548,1.759,1.759,0,0,0,2.724.015,4.27,4.27,0,0,0,.5-2.43,3.5,3.5,0,0,0-.516-2.138,1.64,1.64,0,0,0-1.376-.642" transform="translate(-52.302 -48.617)" fill="#1a1818"/>
    <path id="Path_55" data-name="Path 55" d="M825.576,337.864a1.781,1.781,0,0,1,1.472-.719,1.841,1.841,0,0,1,1.528.714,3.659,3.659,0,0,1,.558,2.255,4.371,4.371,0,0,1-.538,2.543,1.778,1.778,0,0,1-1.515.714,1.8,1.8,0,0,1-1.507-.727,3.969,3.969,0,0,1-.555-2.379,4.021,4.021,0,0,1,.557-2.4m-2.914,5.589a4.38,4.38,0,0,0,1.766,1.869,5.732,5.732,0,0,0,2.749.591,5.057,5.057,0,0,0,2.733-.686,4.428,4.428,0,0,0,1.679-1.911,7.432,7.432,0,0,0,.578-3.153,5.91,5.91,0,0,0-1.329-4.119,4.827,4.827,0,0,0-3.779-1.472,4.745,4.745,0,0,0-3.734,1.5,6.034,6.034,0,0,0-1.339,4.179,6.8,6.8,0,0,0,.676,3.2" transform="translate(-59.117 -48.726)" fill="#1a1818"/>
    <path id="Path_56" data-name="Path 56" d="M827.068,345.994a5.958,5.958,0,0,1-2.839-.614,4.6,4.6,0,0,1-1.842-1.946,7.009,7.009,0,0,1-.7-3.291,6.244,6.244,0,0,1,1.387-4.3,4.946,4.946,0,0,1,3.874-1.562,5.023,5.023,0,0,1,3.919,1.533,6.116,6.116,0,0,1,1.379,4.245,7.653,7.653,0,0,1-.6,3.233,4.639,4.639,0,0,1-1.75,1.992,5.27,5.27,0,0,1-2.833.714m-.118-11.341a4.588,4.588,0,0,0-3.594,1.436,5.889,5.889,0,0,0-1.29,4.053,6.65,6.65,0,0,0,.653,3.114,4.226,4.226,0,0,0,1.689,1.792,5.59,5.59,0,0,0,2.659.568,4.9,4.9,0,0,0,2.632-.657,4.264,4.264,0,0,0,1.609-1.833,7.291,7.291,0,0,0,.56-3.073,5.758,5.758,0,0,0-1.28-3.992,4.664,4.664,0,0,0-3.64-1.41m.023,8.8a1.992,1.992,0,0,1-1.657-.8,4.1,4.1,0,0,1-.594-2.495,4.146,4.146,0,0,1,.6-2.513,1.968,1.968,0,0,1,1.622-.795,2.029,2.029,0,0,1,1.675.786,3.846,3.846,0,0,1,.6,2.371,4.5,4.5,0,0,1-.576,2.658,1.97,1.97,0,0,1-1.666.788m-.033-6.226a1.585,1.585,0,0,0-1.323.648,3.877,3.877,0,0,0-.517,2.283,3.828,3.828,0,0,0,.516,2.265,1.611,1.611,0,0,0,1.357.653,1.591,1.591,0,0,0,1.365-.638,4.242,4.242,0,0,0,.5-2.43,3.506,3.506,0,0,0-.518-2.139,1.648,1.648,0,0,0-1.379-.641" transform="translate(-59.008 -48.617)" fill="#1a1818"/>
    <path id="Path_57" data-name="Path 57" d="M840.938,334.855h3.03v8.28H848.7v2.7h-7.763Z" transform="translate(-66.046 -48.829)" fill="#1a1818"/>
    <path id="Path_58" data-name="Path 58" d="M848.782,345.915h-8.141V334.557h3.408v8.281h4.733Zm-7.763-.378H848.4v-2.323h-4.733v-8.28h-2.653Z" transform="translate(-65.937 -48.72)" fill="#1a1818"/>
    <rect id="Rectangle_3" data-name="Rectangle 3" width="27.426" height="2.192" transform="translate(786.663 289.899)" fill="#1a1818"/>
    <path id="Path_59" data-name="Path 59" d="M887,343.231h-27.8v-2.569H887Zm-27.426-.376H886.62V341.04H859.571Z" transform="translate(-72.72 -50.952)" fill="#1a1818"/>
    <rect id="Rectangle_4" data-name="Rectangle 4" width="27.426" height="2.192" transform="translate(683.584 289.899)" fill="#1a1818"/>
    <path id="Path_60" data-name="Path 60" d="M724.517,343.231h-27.8v-2.569h27.8Zm-27.426-.376H724.14V341.04H697.091Z" transform="translate(-13.318 -50.952)" fill="#1a1818"/>
    <g id="Group_2" data-name="Group 2" transform="translate(682.42 222.175)">
      <g id="Group_1" data-name="Group 1" transform="translate(0)" clip-path="url(#clip-path)">
        <rect id="Rectangle_5" data-name="Rectangle 5" width="132.753" height="61.153" transform="translate(-0.005 0)" fill="url(#linear-gradient)"/>
      </g>
    </g>
    <path id="Path_62" data-name="Path 62" d="M719.513,295.615l-.253-.176c-24.227-.331-24.26-.366-24.337-.45l-.058-.063.01-.084c.479-4.684,6-26.852,16.3-37.721l.061-.064.088.005c3.3.186,3.414.443,3.462.554l.047.106-.083.131a3.7,3.7,0,0,1-1.923.892c-1.226.327-2.383.636-2.226,2,.113.978,1.163,1.184,2.022,1.183a6.826,6.826,0,0,0,1.2-.114,2.112,2.112,0,0,1,.454-.125l.185-.014.042.188c.018.185-.129.23-.585.316-.749.258-2.251.87-3.151,1.238l-.625.253c-.542.225-1.6,3.14-1.326,4.016a1.86,1.86,0,0,0,1.959,1.384,4.868,4.868,0,0,0,1.7-.355l.223.291a5.8,5.8,0,0,1-.414.433c-.429.423-1.077,1.063-1.078,1.527a.414.414,0,0,0,.136.313,1.35,1.35,0,0,0,1,.383,7.554,7.554,0,0,0,3.116-1.208c.188-.105.369-.206.54-.3a.461.461,0,0,1,.217-.06.412.412,0,0,1,.388.315,4,4,0,0,1-1.229,3.47c-.671.582-.919,1.128-.735,1.623.45,1.207,3.291,1.972,4.37,1.972a1.072,1.072,0,0,0,.171-.011l.077-.008a.236.236,0,0,1,.228.141c.09.214-.1.435-1.094,1.467-.634.656-1.953,2.021-1.858,2.343.035.117.27.133.407.133a11.125,11.125,0,0,0,2.478-.556,8.5,8.5,0,0,1,1.776-.418.422.422,0,0,1,.368.154.335.335,0,0,1,0,.339c-.658,1.42-3.791,2.07-4.155,2.141a1.539,1.539,0,0,1-.663.091c-1.774,0-6.7-.9-7.485-1.584-.128-.112-.2-.377-.364-.965-.312-1.149-.834-3.071-2-3.239h0c-1.114,0-5.92,4.541-5.94,5.584,0,.048,0,.076.126.08,4.53.161,6.276,1.816,6.349,1.886l.426.416-.588-.1a29.494,29.494,0,0,0-5.089-.18,3.291,3.291,0,0,0-3.338,2.13c-.048.106-.086.194-.123.259-.1.176.5,1,1.283,1.756a19.55,19.55,0,0,1,3.77-1.955.55.55,0,0,1,.14-.013,25.88,25.88,0,0,1,4.456.664.223.223,0,0,1,.136.233c-.031.232-.213.344-3.575.969-.714.133-1.33.247-1.533.305-.375.107-1.266,2.213-1.389,2.972a7.254,7.254,0,0,1,4.046-.972c5.378,0,12.94,3.237,13.382,3.561l.475.35-.4-.006Zm-24.241-.931c1.59.056,13.076.226,23.192.366-2.053-.894-7.872-3.135-12.406-3.135a6.626,6.626,0,0,0-4,1.026.306.306,0,0,1-.182.069h0a.249.249,0,0,1-.242-.24c-.077-.546.978-3.4,1.668-3.6.221-.062.815-.173,1.568-.313.9-.167,2.275-.423,2.942-.6a33.93,33.93,0,0,0-3.891-.513.35.35,0,0,0-.05,0,21,21,0,0,0-3.781,1.987l-.125.081-.107-.1c-.542-.514-1.767-1.767-1.458-2.319.032-.056.066-.134.107-.226a3.669,3.669,0,0,1,3.67-2.354,34.813,34.813,0,0,1,4.422.1,11.464,11.464,0,0,0-5.522-1.369.444.444,0,0,1-.489-.464c.022-1.226,5.019-5.958,6.291-5.958a.466.466,0,0,1,.081.006c1.408.2,1.97,2.276,2.307,3.513a4.206,4.206,0,0,0,.253.785c.653.565,5.43,1.485,7.232,1.485a1.21,1.21,0,0,0,.5-.053l.063-.025c.033-.005,3.235-.619,3.89-1.891h-.005a8.756,8.756,0,0,0-1.669.4,11.3,11.3,0,0,1-2.585.571c-.43,0-.689-.136-.768-.4-.147-.5.676-1.4,1.947-2.713.316-.327.688-.714.882-.95-.917,0-4.147-.694-4.715-2.216-.245-.658.037-1.344.841-2.042a3.913,3.913,0,0,0,1.167-2.8c-.015-.227-.069-.311-.086-.324-.2.107-.38.207-.567.311a7.783,7.783,0,0,1-3.3,1.255,1.731,1.731,0,0,1-1.268-.492.8.8,0,0,1-.247-.581c0-.568.576-1.182,1.058-1.663a4.683,4.683,0,0,1-1.108.145,2.23,2.23,0,0,1-2.319-1.646c-.324-1.016.759-4.157,1.544-4.479l.624-.254c.517-.211,1.232-.5,1.891-.763-1.37-.026-2.183-.562-2.293-1.517-.195-1.685,1.239-2.068,2.5-2.406a4.443,4.443,0,0,0,1.585-.623,22.512,22.512,0,0,0-2.925-.313c-10.064,10.679-15.517,32.2-16.118,37.242m53.366.754h-4.665l-.065-.365a12.838,12.838,0,0,0,7.284-8.256,14.4,14.4,0,0,0-.037-5.666c-.281-1.785-.5-3.193.61-4.342a21.354,21.354,0,0,1,3.38-2.38l.281-.164,0,.326c0,.627.016,15.452-6.739,20.807Zm-3.745-.376h3.612c6.015-4.839,6.5-17.882,6.541-20.136a19.1,19.1,0,0,0-3.012,2.146c-.981,1.013-.783,2.276-.507,4.022a14.69,14.69,0,0,1,.032,5.805,13.443,13.443,0,0,1-6.667,8.162m83.123.3H789.548l-.045-.372a15.727,15.727,0,0,0,4.622-2.739c1.424-1.059,2.549-1.9,3.261-1.9.331,0,.729.178.736,1.022.008.991.346,1.414,1.132,1.414,1.1,0,3.035-.8,6.289-2.606a.39.39,0,0,0,.211-.237c.066-.258-.183-.652-.4-1-.259-.408-.48-.76-.325-1.046.131-.245.463-.277.7-.28,12.244-.185,16.518-5.477,16.51-6.6,0-.153-.074-.167-.2-.155-1.17,0-5.928-14.847-7.921-21.232l.338-.16A86.444,86.444,0,0,1,828,295.154Zm-37.4-.377H827.6a86.461,86.461,0,0,0-12.7-34.12c2.5,7.9,6.32,19.242,7.14,19.637-.008-.008.021-.009.048-.009a.5.5,0,0,1,.528.532c.013,1.621-5.043,6.8-16.88,6.977-.331.005-.377.081-.377.082-.05.092.177.452.313.666a1.867,1.867,0,0,1,.451,1.293.76.76,0,0,1-.394.473c-3.359,1.861-5.295,2.654-6.473,2.654-1.006,0-1.5-.584-1.51-1.788,0-.647-.251-.647-.357-.647-.587,0-1.777.884-3.036,1.82a23.212,23.212,0,0,1-3.731,2.43m-8.752.364-7.22-.019-.043-.025c-6.5-3.749-6.666-16.859-6.67-17.416l0-.636.351.53c.087.131,8.255,13.387,6.928,14.333-.075.053-.07.081-.068.091.1.579,3.525,1.865,6.778,2.772Zm-7.118-.4,5.786.015c-2.074-.631-5.618-1.83-5.767-2.7a.456.456,0,0,1,.222-.463c.635-.69-4.956-10.443-6.656-13.227.131,2.791.979,13.184,6.414,16.372m-36.772-18.377h0c-2.353,0-6.574-6.9-11.058-14.595a38.748,38.748,0,0,0-3.114-4.966c-2-1.521-5.693-2.054-7.271-2.281-.339-.048-.563-.08-.672-.108a17.73,17.73,0,0,1-1.742-.622l-.23-.094.154-.2c11.611-14.885,30.32-18.917,35.777-19.8l.036-.006.035.008c.279.062,6.821,1.655,6.319,15.8-.022.662-1.152.739-2,.739-4.329,0-15.158-2.46-17.424-2.986,3.7,6.711,1.434,11.166.681,12.648l-.116.23,3.362-.528c5.875-.924,10.12-1.592,12.668-1.592,1.107,0,2.6.109,2.8,1.056.388,1.87-.16,8.619-.522,12.476l-.04.458-.2-.027c-.758-.108-4.562-.669-5-1.113-.167-.166-.332-.355-.506-.554a4.8,4.8,0,0,0-3.955-2.043,9.343,9.343,0,0,0-2.458.379c-4.381,1.223-4.445,3.937-4.488,5.734-.025,1.022-.046,1.906-.933,1.975q-.045,0-.091,0m-23.484-22.826a14.76,14.76,0,0,0,1.459.511c.089.023.331.058.633.1,1.608.231,5.372.772,7.447,2.352.429.327,1.448,2.052,3.211,5.076,3.142,5.389,8.4,14.406,10.733,14.407,0,0,.042,0,.063,0,.5-.039.559-.473.585-1.609.045-1.906.114-4.789,4.764-6.087a9.678,9.678,0,0,1,2.56-.393,5.115,5.115,0,0,1,4.239,2.171c.169.193.329.376.49.537a21.334,21.334,0,0,0,4.592.978l.006-.065c.622-6.622.809-11.013.529-12.364-.105-.508-.9-.756-2.427-.756-2.519,0-6.751.667-12.61,1.589q-1.713.269-3.6.563l-.048,0a.223.223,0,0,1-.2-.106c-.088-.141-.015-.284.2-.707.744-1.465,3.006-5.921-.884-12.665l-.219-.379.427.1c.129.031,12.975,3.074,17.756,3.074,1.534,0,1.623-.312,1.625-.374.471-13.3-5.5-15.274-5.992-15.412-5.448.884-23.836,4.874-35.346,19.455m52.954,18.034-.015-.185c-.033-.386-.8-9.51-.448-12.694.056-.507.734-.731,2.2-.731a93.617,93.617,0,0,1,11.961,1.541c2.2.372,3.951.668,4.572.688-2.029-5.425-2.163-7.027.667-12.983-2.2.493-13.362,2.94-17.633,2.94-.864,0-1.859-.077-1.871-.679-.282-14.493,5.9-15.682,6.164-15.725l.026,0,.026,0c23.839,2.7,37.089,19.8,38.973,22.551l.119.159a.762.762,0,0,0,.052.065l-.014.013a.692.692,0,0,1,.076.135l-.01.178h-.179a.173.173,0,0,1-.056-.008c-.741.88-4.465,5.093-7.792,5.094h0c-.062,0-.122,0-.183-.005-.528-.026-1.049-.039-1.547-.039-10.419,0-10.577,5.728-10.578,5.786v.358l-.294-.2a8.139,8.139,0,0,0-4.745-1.34c-3.251,0-7.442,1.43-11.208,3.824-1.212.77-7.793,1.231-8.073,1.249Zm1.734-13.233c-1.693,0-1.816.329-1.822.4-.318,2.9.324,11.1.433,12.436,2.388-.171,6.828-.619,7.711-1.179,3.824-2.431,8.089-3.882,11.41-3.882a8.647,8.647,0,0,1,4.7,1.233c.2-1.277,1.573-5.833,10.92-5.833.5,0,1.03.013,1.565.039q.083,0,.166,0c3.2,0,6.966-4.321,7.549-5.013-1.426-2.017-14.827-19.7-38.731-22.419-.409.093-6.093,1.65-5.827,15.34,0,.115.32.31,1.494.31,4.685,0,17.8-2.986,17.93-3.017l.381-.086-.169.353c-2.994,6.229-2.871,7.589-.747,13.239l.035.093-.058.1a.393.393,0,0,1-.343.115c-.591,0-2.4-.306-4.7-.693a93.436,93.436,0,0,0-11.9-1.536" transform="translate(-12.643 -11.923)" fill="#1a1818"/>
  </g>
</svg>
